<svg xmlns="http://www.w3.org/2000/svg" viewBox="0 0 128.44 120"><defs><style>.cls-1{fill:#efefef;}.cls-2{fill:#3aae36;}.cls-3{fill:#fff;}</style></defs><title>LINE_APP_CMYK_20190219</title><g id="BG"><rect id="BG-2" data-name="BG" class="cls-1" x="-357.13" y="-265.04" width="841.89" height="595.28"/></g><g id="LINE_LOGO" data-name="LINE LOGO"><g id="FULL_COLOR_ICON" data-name="FULL COLOR ICON"><rect class="cls-2" x="3.51" width="120" height="120" rx="26"/><g id="TYPE_A" data-name="TYPE A"><path class="cls-3" d="M107,54.72c0-19.55-19.59-35.45-43.69-35.45S19.62,35.17,19.62,54.72c0,17.53,15.55,32.21,36.54,35,1.42.31,3.36.94,3.85,2.16a8.93,8.93,0,0,1,.14,4l-.62,3.74c-.19,1.1-.88,4.32,3.78,2.35S88.47,87.09,97.64,76.54h0c6.33-7,9.36-14,9.36-21.82"/><path class="cls-2" d="M54.44,45.28H51.37a.85.85,0,0,0-.85.85v19a.85.85,0,0,0,.85.85h3.07a.85.85,0,0,0,.85-.85v-19a.85.85,0,0,0-.85-.85"/><path class="cls-2" d="M75.53,45.28H72.47a.85.85,0,0,0-.85.85V57.44L62.89,45.65l-.07-.08h0l0-.05h0s0,0,0,0l0,0,0,0,0,0,0,0h0l0,0h0l0,0h-3.3a.85.85,0,0,0-.85.85v19a.85.85,0,0,0,.85.85h3.06a.85.85,0,0,0,.85-.85V53.86l8.74,11.79a.7.7,0,0,0,.21.21h0l.06,0h0l0,0,0,0h0l.06,0h0a.78.78,0,0,0,.22,0h3.06a.85.85,0,0,0,.85-.85v-19a.85.85,0,0,0-.85-.85"/><path class="cls-2" d="M47.05,61.25H38.72V46.13a.85.85,0,0,0-.85-.85H34.81a.85.85,0,0,0-.85.85v19h0a.87.87,0,0,0,.23.59h0v0a.87.87,0,0,0,.59.23H47.05a.85.85,0,0,0,.85-.85V62.1a.85.85,0,0,0-.85-.85"/><path class="cls-2" d="M92.45,50a.85.85,0,0,0,.85-.85V46.13a.85.85,0,0,0-.85-.85H80.21a.83.83,0,0,0-.59.24h0v0a.83.83,0,0,0-.24.59h0v19h0a.83.83,0,0,0,.24.59h0a.85.85,0,0,0,.59.24H92.45a.85.85,0,0,0,.85-.85V62.1a.85.85,0,0,0-.85-.85H84.13V58h8.32a.85.85,0,0,0,.85-.85V54.11a.85.85,0,0,0-.85-.85H84.13V50Z"/></g></g></g></svg>