<svg width="199" height="68" viewBox="0 0 199 68" fill="none" xmlns="http://www.w3.org/2000/svg">
<path d="M0.5625 48.7188V17.875C0.5625 14.5625 1.96875 11.1875 4.78125 7.75C8.53125 3.25 13.2812 0.96875 19.0312 0.90625V14.125C16.4688 14.1875 14.7812 15.625 13.9688 18.4375C13.8438 18.875 13.7812 19.1875 13.7812 19.375V48.7188C13.7812 51.2812 15.1875 53.0312 18 53.9688C18.4375 54.0938 18.75 54.1562 18.9375 54.1562V67.4688C15.375 67.4688 11.8125 66.1875 8.25 63.625C3.1875 59.875 0.625 54.9062 0.5625 48.7188ZM24.0938 67.4688V54.1562C25.0938 54.1562 26.2188 53.625 27.4688 52.5625C28.6562 51.5 29.2812 50.2188 29.3438 48.7188V19.375C29.3438 18.25 28.8125 17.0625 27.75 15.8125C26.75 14.75 25.5312 14.1875 24.0938 14.125V0.90625C30.4062 0.90625 35.4688 3.625 39.2812 9.0625C41.4688 12.1875 42.5625 15.125 42.5625 17.875V48.7188C42.5625 55.6562 39.4688 60.9688 33.2812 64.6562C30.0312 66.5312 26.9688 67.4688 24.0938 67.4688ZM48.9375 60.4375C48.9375 57.625 50.1562 55.5312 52.5938 54.1562C53.6562 53.5938 54.7812 53.3125 55.9688 53.3125C58.7812 53.3125 60.8438 54.5312 62.1562 56.9688C62.7188 58.0312 63 59.1875 63 60.4375C63 63.3125 61.75 65.375 59.25 66.625C58.1875 67.1875 57.0938 67.4688 55.9688 67.4688C53.0938 67.4688 51.0312 66.2188 49.7812 63.7188C49.2188 62.6562 48.9375 61.5625 48.9375 60.4375ZM69.5625 67V1.375H82.7812V27.5312H86.4375V40.4688H82.7812V67H69.5625ZM91.5938 40.4688V27.5312H95.25V1.375H108.469V67H95.25V40.4688H91.5938ZM116.156 67V1.375H129.375V67H116.156ZM136.125 60.4375C136.125 57.625 137.344 55.5312 139.781 54.1562C140.844 53.5938 141.969 53.3125 143.156 53.3125C145.969 53.3125 148.031 54.5312 149.344 56.9688C149.906 58.0312 150.188 59.1875 150.188 60.4375C150.188 63.3125 148.938 65.375 146.438 66.625C145.375 67.1875 144.281 67.4688 143.156 67.4688C140.281 67.4688 138.219 66.2188 136.969 63.7188C136.406 62.6562 136.125 61.5625 136.125 60.4375ZM156.562 48.7188V17.875C156.562 14.5625 157.969 11.1875 160.781 7.75C164.531 3.25 169.281 0.96875 175.031 0.90625V14.125C172.469 14.1875 170.781 15.625 169.969 18.4375C169.844 18.875 169.781 19.1875 169.781 19.375V48.7188C169.781 51.2812 171.188 53.0312 174 53.9688C174.438 54.0938 174.75 54.1562 174.938 54.1562V67.4688C171.375 67.4688 167.812 66.1875 164.25 63.625C159.188 59.875 156.625 54.9062 156.562 48.7188ZM180.094 67.4688V54.1562C181.094 54.1562 182.219 53.625 183.469 52.5625C184.656 51.5 185.281 50.2188 185.344 48.7188V19.375C185.344 18.25 184.812 17.0625 183.75 15.8125C182.75 14.75 181.531 14.1875 180.094 14.125V0.90625C186.406 0.90625 191.469 3.625 195.281 9.0625C197.469 12.1875 198.562 15.125 198.562 17.875V48.7188C198.562 55.6562 195.469 60.9688 189.281 64.6562C186.031 66.5312 182.969 67.4688 180.094 67.4688Z" fill="#EB5757"/>
</svg>
