<svg width="347" height="115" viewBox="0 0 347 115" fill="none" xmlns="http://www.w3.org/2000/svg">
<path d="M78.6226 26.8703C72.2824 32.8265 64.2282 34.9028 33.4418 29.569C13.6403 26.1378 2.45449 43.2476 5.11042 63.5055C6.42873 73.5614 9.40849 83.0672 14.5364 90.9402C20.6609 100.335 43.3149 118.233 43.9741 100.277C46.6948 26.3034 56.226 78.7402 69.0808 76.0315C77.7852 74.197 71.358 11.1925 103.499 95.4285C112.243 118.345 136.103 72.7429 132.65 46.6358C131.373 36.9803 128.6 27.8278 123.788 20.1701C111.78 1.05595 91.4242 14.8408 78.6226 26.8703Z" fill="url(#paint0_radial)"/>
<mask id="mask0" mask-type="alpha" maskUnits="userSpaceOnUse" x="0" y="8" width="140" height="107">
<path d="M78.6226 26.8703C72.2824 32.8265 64.2282 34.9028 33.4418 29.569C13.6403 26.1378 2.45449 43.2476 5.11042 63.5055C6.42873 73.5614 9.40849 83.0672 14.5364 90.9402C20.6609 100.335 43.3149 118.233 43.9741 100.277C46.6948 26.3034 56.226 78.7402 69.0808 76.0315C77.7852 74.197 71.358 11.1925 103.499 95.4285C112.243 118.345 136.103 72.7429 132.65 46.6358C131.373 36.9803 128.6 27.8278 123.788 20.1701C111.78 1.05595 91.4242 14.8408 78.6226 26.8703Z" fill="white"/>
</mask>
<g mask="url(#mask0)">
<path d="M25.2859 108.547C25.2859 108.547 31.4099 63.8711 67.2703 94.1698C98.3333 120.414 129.167 75.1424 129.167 75.1424L131.797 112.862L77.1189 132.951L18.2189 140.742L25.2859 108.547Z" fill="url(#paint1_linear)"/>
<path d="M39.8623 11.8288C39.8623 11.8288 12.4993 15.4482 23.1419 54.8808C28.0741 73.1536 27.6497 94.8299 0.446469 105.704C-26.7568 116.578 -21.3067 14.3987 -21.3067 14.3987L45.1998 -38.7931L39.8623 11.8288Z" fill="url(#paint2_radial)"/>
<path d="M62.0047 2.75655C62.0047 2.75655 65.43 50.1119 92.584 45.5193C119.738 40.9293 133.301 51.5286 136.168 72.6006C139.036 93.6726 166.963 24.4073 166.963 24.4073L111.179 -28.0099L62.0047 2.75655Z" fill="url(#paint3_radial)"/>
</g>
<ellipse cx="63.6026" cy="101.017" rx="4.95299" ry="5.28657" transform="rotate(-7.53482 63.6026 101.017)" fill="#E05500"/>
<ellipse cx="83.2427" cy="98.4193" rx="4.95299" ry="5.28657" transform="rotate(-7.53482 83.2427 98.4193)" fill="#E05500"/>
<path d="M154.34 75.8613V46.9453C154.34 43.8398 155.658 40.6758 158.295 37.4531C161.811 33.2344 166.264 31.0957 171.654 31.0371V43.4297C169.252 43.4883 167.67 44.8359 166.908 47.4727C166.791 47.8828 166.732 48.1758 166.732 48.3516V75.8613C166.732 78.2637 168.051 79.9043 170.688 80.7832C171.098 80.9004 171.391 80.959 171.566 80.959V93.4395C168.227 93.4395 164.887 92.2383 161.547 89.8359C156.801 86.3203 154.398 81.6621 154.34 75.8613ZM176.4 93.4395V80.959C177.338 80.959 178.393 80.4609 179.564 79.4648C180.678 78.4688 181.264 77.2676 181.322 75.8613V48.3516C181.322 47.2969 180.824 46.1836 179.828 45.0117C178.891 44.0156 177.748 43.4883 176.4 43.4297V31.0371C182.318 31.0371 187.064 33.5859 190.639 38.6836C192.689 41.6133 193.715 44.3672 193.715 46.9453V75.8613C193.715 82.3652 190.814 87.3457 185.014 90.8027C181.967 92.5605 179.096 93.4395 176.4 93.4395ZM199.691 86.8477C199.691 84.2109 200.834 82.248 203.119 80.959C204.115 80.4316 205.17 80.168 206.283 80.168C208.92 80.168 210.854 81.3105 212.084 83.5957C212.611 84.5918 212.875 85.6758 212.875 86.8477C212.875 89.543 211.703 91.4766 209.359 92.6484C208.363 93.1758 207.338 93.4395 206.283 93.4395C203.588 93.4395 201.654 92.2676 200.482 89.9238C199.955 88.9277 199.691 87.9023 199.691 86.8477ZM219.027 93V31.4766H231.42V55.998H234.848V68.127H231.42V93H219.027ZM239.682 68.127V55.998H243.109V31.4766H255.502V93H243.109V68.127H239.682ZM262.709 93V31.4766H275.102V93H262.709ZM281.43 86.8477C281.43 84.2109 282.572 82.248 284.857 80.959C285.854 80.4316 286.908 80.168 288.021 80.168C290.658 80.168 292.592 81.3105 293.822 83.5957C294.35 84.5918 294.613 85.6758 294.613 86.8477C294.613 89.543 293.441 91.4766 291.098 92.6484C290.102 93.1758 289.076 93.4395 288.021 93.4395C285.326 93.4395 283.393 92.2676 282.221 89.9238C281.693 88.9277 281.43 87.9023 281.43 86.8477ZM300.59 75.8613V46.9453C300.59 43.8398 301.908 40.6758 304.545 37.4531C308.061 33.2344 312.514 31.0957 317.904 31.0371V43.4297C315.502 43.4883 313.92 44.8359 313.158 47.4727C313.041 47.8828 312.982 48.1758 312.982 48.3516V75.8613C312.982 78.2637 314.301 79.9043 316.938 80.7832C317.348 80.9004 317.641 80.959 317.816 80.959V93.4395C314.477 93.4395 311.137 92.2383 307.797 89.8359C303.051 86.3203 300.648 81.6621 300.59 75.8613ZM322.65 93.4395V80.959C323.588 80.959 324.643 80.4609 325.814 79.4648C326.928 78.4688 327.514 77.2676 327.572 75.8613V48.3516C327.572 47.2969 327.074 46.1836 326.078 45.0117C325.141 44.0156 323.998 43.4883 322.65 43.4297V31.0371C328.568 31.0371 333.314 33.5859 336.889 38.6836C338.939 41.6133 339.965 44.3672 339.965 46.9453V75.8613C339.965 82.3652 337.064 87.3457 331.264 90.8027C328.217 92.5605 325.346 93.4395 322.65 93.4395Z" fill="#EB5757"/>
<defs>
<radialGradient id="paint0_radial" cx="0" cy="0" r="1" gradientUnits="userSpaceOnUse" gradientTransform="translate(69.7106 61.3382) rotate(-7.55358) scale(114.865 122.729)">
<stop stop-color="#FF3E80"/>
<stop offset="1" stop-color="#C41700"/>
</radialGradient>
<linearGradient id="paint1_linear" x1="3.75718" y1="110.216" x2="164.689" y2="99.7486" gradientUnits="userSpaceOnUse">
<stop stop-color="#FF9900"/>
<stop offset="1" stop-color="#C41700"/>
</linearGradient>
<radialGradient id="paint2_radial" cx="0" cy="0" r="1" gradientUnits="userSpaceOnUse" gradientTransform="translate(15.0679 34.6677) rotate(-7.58126) scale(70.5445 186.623)">
<stop stop-color="#FF3E80"/>
<stop offset="1" stop-color="#C41700"/>
</radialGradient>
<radialGradient id="paint3_radial" cx="0" cy="0" r="1" gradientUnits="userSpaceOnUse" gradientTransform="translate(116.016 25.4639) rotate(-7.56304) scale(90.4396 145.359)">
<stop stop-color="#FF3E80"/>
<stop offset="1" stop-color="#C41700"/>
</radialGradient>
</defs>
</svg>
