<svg id="Layer_1" enable-background="new 0 0 512 512" height="512" viewBox="0 0 512 512" width="512" xmlns="http://www.w3.org/2000/svg"><g><g><g><g><g><g id="XMLID_1064_"><g id="XMLID_1065_"><g id="XMLID_1081_"><g id="XMLID_1082_"><g id="XMLID_1259_"><g id="XMLID_1260_"><g id="XMLID_1261_"><g id="XMLID_1262_"><g id="XMLID_1263_"><g id="XMLID_1264_"><g id="XMLID_1265_"><g id="XMLID_1266_"><g id="XMLID_1267_"><g id="XMLID_1268_"><g id="XMLID_1269_"><circle cx="256" cy="256" fill="#ffe05c" r="256"/></g></g></g></g></g></g></g></g></g></g></g></g></g></g></g></g></g></g></g><path d="m133.863 347.469 104.316 104.33 17.821 32.331 26.513 26.513c128.927-13.265 229.487-122.211 229.487-254.643 0-13.077-.981-25.924-2.872-38.473l-122.664-122.664z" fill="#ffbc00"/><g><path d="m256 296.604-100.68 39.41 100.68 148.116 100.68-148.116z" fill="#9bda05"/><g><g><g><path d="m356.68 336.01-31.01 45.62-69.67 102.5v-187.53l64.56 25.27z" fill="#00cb75"/></g></g></g><ellipse cx="256" cy="217.002" fill="#007578" rx="178.715" ry="178.715" transform="matrix(.707 -.707 .707 .707 -78.463 244.578)"/><path d="m434.71 217c0 73.98-44.95 137.47-109.04 164.63-21.41 9.07-44.95 14.09-69.67 14.09v-357.43c98.7 0 178.71 80.01 178.71 178.71z" fill="#005457"/><ellipse cx="256" cy="217.002" fill="#fff" rx="123.137" ry="123.137" transform="matrix(.707 -.707 .707 .707 -78.463 244.578)"/><path d="m379.14 217c0 44.33-23.43 83.2-58.58 104.87-18.77 11.59-40.89 18.27-64.56 18.27v-246.27c68.01 0 123.14 55.13 123.14 123.13z" fill="#dbdbdb"/><g><path d="m336.935 207.474c0-21.334-17.295-38.629-38.629-38.629-1.259 0-2.504.061-3.733.179-1.39-20.071-18.111-35.921-38.535-35.921-20.426 0-37.149 15.854-38.535 35.928-1.253-.123-2.523-.186-3.808-.186-21.334 0-38.629 17.295-38.629 38.629 0 13.065 6.486 24.614 16.413 31.605-2.012 4.679-3.128 9.834-3.128 15.25 0 21.334 17.295 38.629 38.629 38.629 11.585 0 21.978-5.1 29.058-13.177 7.08 8.077 17.473 13.177 29.058 13.177 21.334 0 38.629-17.295 38.629-38.629 0-5.432-1.122-10.602-3.145-15.291 9.894-6.995 16.355-18.525 16.355-31.564z" fill="#ff5c5c"/><path d="m336.93 207.47c0-21.33-17.29-38.63-38.62-38.63-1.26 0-2.51.07-3.74.18-1.39-20.07-18.11-35.92-38.53-35.92h-.04v146.72c.02-.01.03-.03.04-.04 7.08 8.08 17.47 13.18 29.06 13.18 21.33 0 38.62-17.3 38.62-38.63 0-5.43-1.12-10.6-3.14-15.29 9.89-7 16.35-18.53 16.35-31.57z" fill="#d01273"/><g><g><g><ellipse cx="256" cy="219.773" fill="#fff931" rx="29.302" ry="29.302" transform="matrix(.036 -.999 .999 .036 27.084 467.631)"/></g></g></g><g><g><g><path d="m285.3 219.77c0 16.19-13.12 29.31-29.3 29.31v-58.61c16.18 0 29.3 13.12 29.3 29.3z" fill="#ffbc00"/></g></g></g></g></g></g></svg>