<svg id="Layer_1" enable-background="new 0 0 512 512" height="512" viewBox="0 0 512 512" width="512" xmlns="http://www.w3.org/2000/svg"><g><g><g><g><g><g id="XMLID_1515_"><g id="XMLID_1516_"><g id="XMLID_1517_"><g id="XMLID_1518_"><g id="XMLID_1519_"><g id="XMLID_1520_"><g id="XMLID_1521_"><g id="XMLID_1522_"><g id="XMLID_1523_"><g id="XMLID_1524_"><g id="XMLID_1525_"><g id="XMLID_1526_"><g id="XMLID_1527_"><g id="XMLID_1528_"><g id="XMLID_1529_"><circle cx="256" cy="256" fill="#007578" r="256"/></g></g></g></g></g></g></g></g></g></g></g></g></g></g></g></g></g></g></g><path d="m512 256c0-2.01-.023-4.014-.07-6.013l-175.097-175.097s-26.668-22.692-83.366-22.512c-56.699.18-82.779 86.646-82.779 86.646l-53.215 171.523 3.787 108.056 89.392 89.392c14.719 2.632 29.873 4.005 45.348 4.005 141.385 0 256-114.615 256-256z" fill="#005457"/><g><path d="m90.307 172.242s2.639 149.275 11.453 201.909 32.993 59.559 84.194 59.559h140.091c51.201 0 75.38-6.925 84.194-59.559s11.453-201.909 11.453-201.909z" fill="#ffe05c"/><path d="m421.69 172.242s-2.64 149.28-11.45 201.91-32.99 59.56-84.19 59.56h-70.05v-261.47z" fill="#ffbc00"/><path d="m336.833 74.89c-20.124-23.905-49.586-37.614-80.833-37.614s-60.709 13.71-80.833 37.614-28.61 55.272-23.283 86.062l13.808 79.82 32.819-5.678-13.809-79.82c-3.647-21.084 2.164-42.565 15.944-58.934s33.956-25.757 55.353-25.757 41.573 9.388 55.353 25.757 19.592 37.85 15.944 58.934l-13.808 79.82 32.819 5.678 13.808-79.82c5.328-30.79-3.158-62.158-23.282-86.062z" fill="#ff5c5c"/><path d="m360.12 160.952-1.95 11.29-11.86 68.53-32.82-5.68 10.87-62.85 2.94-16.97c3.64-21.08-2.17-42.56-15.95-58.93s-33.95-25.76-55.35-25.76v-33.31c31.25 0 60.71 13.71 80.83 37.62 20.13 23.9 28.61 55.27 23.29 86.06z" fill="#d01273"/><g><ellipse cx="181.457" cy="239.416" fill="#ffa300" rx="27.391" ry="27.391" transform="matrix(.23 -.973 .973 .23 -93.244 361.012)"/><ellipse cx="330.543" cy="239.416" fill="#ff6d00" rx="27.391" ry="27.391" transform="matrix(.34 -.94 .94 .34 -7.098 468.713)"/></g><path d="" fill="none" stroke="#ffe05c" stroke-miterlimit="10" stroke-width="30"/><path d="" fill="#ffa300"/></g></g></svg>