<svg id="Layer_1" enable-background="new 0 0 512 512" height="512" viewBox="0 0 512 512" width="512" xmlns="http://www.w3.org/2000/svg"><g><g><g><g><g><g id="XMLID_1486_"><g id="XMLID_1487_"><g id="XMLID_1488_"><g id="XMLID_1489_"><g id="XMLID_1490_"><g id="XMLID_1491_"><g id="XMLID_1492_"><g id="XMLID_1493_"><g id="XMLID_1494_"><g id="XMLID_1495_"><g id="XMLID_1496_"><g id="XMLID_1497_"><g id="XMLID_1591_"><g id="XMLID_1592_"><g id="XMLID_1593_"><circle cx="256" cy="256" fill="#ff5c5c" r="256"/></g></g></g></g></g></g></g></g></g></g></g></g></g></g></g></g></g></g></g><path d="m512 256c0-6.803-.266-13.544-.787-20.214l-190.041-190.041-24.244 66.497-39.928 11.637-78.654-78.134c-37.118 62.27 54.012 176.373 54.012 176.373l-137.19 209.517s29.828 29.19 61.309 60.299c30.595 12.922 64.224 20.066 99.523 20.066 141.385 0 256-114.615 256-256z" fill="#d01273"/><g><path d="m286.566 201.683c33.08-31.761 34.607-97.84 34.607-97.84v-58.098h-28.5l-8.143 58.098-49.021 24.402-49.021-24.402-8.143-58.098h-28.5v58.098s1.527 66.079 34.607 97.84c0 0-7.394 42.542-19.608 195.218h138.676c-12.214-152.677-16.954-195.218-16.954-195.218z" fill="#fff"/><g><path d="m286.57 201.68s4.74 42.54 16.95 195.22h-68.01v-268.65l49.02-24.41 8.14-58.1h28.5v58.1s-1.52 66.08-34.6 97.84z" fill="#dbdbdb"/></g><path d="m286.566 201.683h-102.113s-76.053 67.097-89.285 229.952h280.682c-13.232-162.855-89.284-229.952-89.284-229.952z" fill="#7efcfc"/><path d="m375.85 431.64h-140.34v-229.96h51.06s76.05 67.1 89.28 229.96z" fill="#37d1f4"/></g><g><path d="m478.599 250.534c0-15.33-8.455-29.169-21.835-36.236 1.202-3.897 1.81-7.955 1.81-12.11 0-10.948-4.263-21.24-12.004-28.982-7.741-7.741-18.034-12.005-28.982-12.005-4.154 0-8.213.607-12.11 1.81-7.066-13.38-20.905-21.835-36.236-21.835s-29.169 8.456-36.236 21.835c-3.897-1.202-7.956-1.81-12.11-1.81-10.948 0-21.24 4.263-28.982 12.005-7.741 7.741-12.004 18.034-12.004 28.982 0 4.155.608 8.213 1.81 12.11-13.38 7.067-21.835 20.906-21.835 36.236s8.455 29.169 21.835 36.236c-1.202 3.897-1.81 7.955-1.81 12.11 0 10.948 4.264 21.241 12.004 28.982 7.741 7.741 18.034 12.005 28.982 12.005 4.154 0 8.213-.607 12.11-1.81 7.066 13.38 20.905 21.835 36.236 21.835s29.169-8.455 36.236-21.835c3.897 1.202 7.956 1.81 12.11 1.81 10.948 0 21.241-4.263 28.982-12.005 7.741-7.741 12.004-18.034 12.004-28.982 0-4.155-.607-8.213-1.81-12.11 13.38-7.067 21.835-20.906 21.835-36.236z" fill="#ffe05c"/><path d="m456.765 286.769c1.203 3.9 1.81 7.956 1.81 12.112 0 10.949-4.266 21.24-12.006 28.981-7.74 7.74-18.032 12.006-28.981 12.006-4.156 0-8.211-.607-12.112-1.81-7.063 13.38-20.905 21.837-36.235 21.837v-218.721c15.33 0 29.171 8.457 36.235 21.837 3.9-1.203 7.956-1.81 12.112-1.81 10.949 0 21.241 4.266 28.981 12.006s12.006 18.032 12.006 28.981c0 4.156-.607 8.211-1.81 12.112 13.38 7.063 21.832 20.905 21.832 36.235s-8.452 29.17-21.832 36.234z" fill="#ffbc00"/><g><g><path d="m310.679 242.01h118.419v15.001h-118.419z" fill="#4f4f4f" transform="matrix(.387 -.922 .922 .387 -3.317 494.031)"/></g><g><g><path d="m399.719 197.814-30.48 72.62v-38.75l16.65-39.67z" fill="#3a3a3a"/></g></g><g><g><g><g><path d="m342.216 245.983c-13.887 0-25.184-12.582-25.184-28.049s11.297-28.049 25.184-28.049 25.184 12.583 25.184 28.049-11.297 28.049-25.184 28.049zm0-41.098c-5.521 0-10.184 5.976-10.184 13.049s4.663 13.049 10.184 13.049 10.184-5.975 10.184-13.049c0-7.073-4.663-13.049-10.184-13.049z" fill="#4f4f4f"/></g></g></g></g><g><path d="m396.266 311.183c-13.886 0-25.183-12.583-25.183-28.049s11.297-28.049 25.183-28.049c13.887 0 25.184 12.583 25.184 28.049 0 15.467-11.297 28.049-25.184 28.049zm0-41.097c-5.52 0-10.183 5.976-10.183 13.049s4.663 13.049 10.183 13.049c5.521 0 10.184-5.976 10.184-13.049 0-7.074-4.663-13.049-10.184-13.049z" fill="#3a3a3a"/></g></g></g></g></svg>