<svg id="Layer_1" enable-background="new 0 0 512 512" height="512" viewBox="0 0 512 512" width="512" xmlns="http://www.w3.org/2000/svg"><g><g><g><g><g><g id="XMLID_1111_"><g id="XMLID_1112_"><g id="XMLID_1113_"><g id="XMLID_1114_"><g id="XMLID_1115_"><g id="XMLID_1116_"><g id="XMLID_1117_"><g id="XMLID_1118_"><g id="XMLID_1236_"><g id="XMLID_1237_"><g id="XMLID_1238_"><g id="XMLID_1239_"><g id="XMLID_1240_"><g id="XMLID_1241_"><g id="XMLID_1242_"><circle cx="256" cy="256" fill="#7efcfc" r="256"/></g></g></g></g></g></g></g></g></g></g></g></g></g></g></g></g></g></g></g><path d="m512 256c0-21.537-2.659-42.453-7.668-62.437l-134.942-134.942-87.676 91.053-91.053-91.053-106.976 175.329 87.169 87.169-56.761 125.077 48.053 48.053c29.061 11.457 60.723 17.751 93.854 17.751 141.385 0 256-114.615 256-256z" fill="#37d1f4"/><g><path d="m356.961 50.879c-14.462-5.165-30.597-.144-39.574 12.316l-61.387 85.202-61.387-85.202c-8.977-12.46-25.112-17.481-39.574-12.316-13.724 4.901-22.885 17.901-22.885 32.473v71.149h247.691v-71.149c0-14.573-9.16-27.572-22.884-32.473z" fill="#ffa300"/><path d="m379.85 83.35v71.15h-123.85v-6.1l6.97-9.67 35.69-49.54 18.73-26c8.97-12.45 25.11-17.48 39.57-12.31 13.72 4.9 22.89 17.9 22.89 32.47z" fill="#ff6d00"/><path d="m397.906 446.196h-99.25l-42.656-17.175-42.656 17.175h-99.25v-254.53h283.812z" fill="#ff5c5c"/><path d="m397.91 191.67v254.53h-99.25l-42.66-17.18v-237.35z" fill="#d01273"/><path d="m428.315 233.95h-344.63v-95.217h129.659l42.656 15.768 42.656-15.768h129.659z" fill="#007578"/><path d="m428.31 138.73v95.22h-172.31v-79.45l11.42-4.22 31.24-11.55z" fill="#005457"/><path d="m213.344 138.733h85.313v307.463h-85.313z" fill="#ffe05c"/><g><g><g><path d="m256 138.73h42.66v307.47h-42.66z" fill="#ffbc00"/></g></g></g><path d="m213.344 233.952h85.313v212.245h-85.313z" fill="#ffbc00"/><g><g><g><path d="m256 233.95h42.66v212.25h-42.66z" fill="#ffa300"/></g></g></g></g></g></svg>