<svg id="Layer_1" enable-background="new 0 0 512 512" height="512" viewBox="0 0 512 512" width="512" xmlns="http://www.w3.org/2000/svg"><g><g><g><g><g><g id="XMLID_1634_"><g id="XMLID_1635_"><g id="XMLID_1636_"><g id="XMLID_1637_"><g id="XMLID_1638_"><g id="XMLID_1639_"><g id="XMLID_1640_"><g id="XMLID_1641_"><g id="XMLID_1642_"><g id="XMLID_1643_"><g id="XMLID_1644_"><g id="XMLID_1645_"><g id="XMLID_1646_"><g id="XMLID_1647_"><g id="XMLID_1648_"><circle cx="256" cy="256" fill="#ff5c5c" r="256"/></g></g></g></g></g></g></g></g></g></g></g></g></g></g></g></g></g></g></g><path d="m509.642 290.893-228.73-228.73-156.232 366.61 77.576 77.576c17.33 3.702 35.309 5.651 53.744 5.651 129.549 0 236.623-96.229 253.642-221.107z" fill="#d01273"/><g><g><g id="XMLID_1_"><g><path d="m419.456 428.786h-163.454l-41.539-48.068 74.241-23.809 130.752 23.809z" fill="#ffbc00"/></g></g><path d="m214.484 428.773h-89.804v-48.072l89.804-13.206z" fill="#ffe05c"/><path d="m419.444 380.7h-294.76l-9.251-233.789 74.858-14.258 75.987 14.258s-.337 45.327.243 64.22c1.308 42.764-9.774 99.257 65.501 99.257 89.696-.001 87.422 70.312 87.422 70.312z" fill="#7efcfc"/><path d="m419.444 380.7h-204.96v-243.505l64.202 9.715s-.337 45.327.243 64.22c1.308 42.764-11.364 86.836 63.911 86.836 89.695.001 76.604 82.734 76.604 82.734z" fill="#4dd9ff"/></g><path d="m268.504 62.163s-1.625 40.855-2.226 84.748h-150.845l-3.354-84.748z" fill="#ffe05c"/><path d="m280.912 62.163s-1.624 40.855-2.226 84.748h-64.202v-84.748z" fill="#ffbc00"/></g></g></svg>